<?xml version="1.0" encoding="UTF-8"?><svg xmlns="http://www.w3.org/2000/svg" xmlns:xlink="http://www.w3.org/1999/xlink" height="2087.1" preserveAspectRatio="xMidYMid meet" version="1.0" viewBox="-55.1 -47.2 1804.3 2087.1" width="1804.3" zoomAndPan="magnify"><g id="change1_1"><path d="M701.98,702.05c-380.16-44.54-235.69,448.77-548.44,553.5c-208.66,69.88-200.25,425.25-1.54,475.29 c131.01,32.99,303.34-169.88,510.04-254.79c119.81-49.22,275.17,33.58,497.25-2.25s412.45-143.15,486-405 c56.25-200.25,103.94-618.87-216-677.25C1121.04,335.3,1105.29,749.29,701.98,702.05z" fill="#bbae97"/></g><g id="change2_1"><path d="M731.23,2029.34c162.38-7.72,356.78-310.31,255.55-533.16s55.42-305.12,38.7-400.53 s-404.12-177.29-571.73,14.64s-236.71,316.23-204.71,510.7C276.49,1787.76,509.64,2039.87,731.23,2029.34z" fill="#af805c" opacity=".8"/></g><g id="change3_1"><path d="M1026.74,150.43c-122.3,134.13-24.95,314.85,168.55,411.86s106.14,263.51,211.5,317.51 c80.99,41.51,228.13,40.63,273.82-186.68c45.68-227.32,32.18-458.41-66.82-599.36C1514.79-47.2,1191.2-29.93,1026.74,150.43z" fill="#eed8d2" opacity=".8"/></g><g fill="#465562" id="change4_1"><path d="M1607.36,903.12c0.53-3.83-5.46-4.13-5.99-0.33c-0.04,0.32-0.09,0.64-0.14,0.96 c-0.69,0.91-0.97,2.21-0.48,3.36c-7.51,52.22-20.04,104.65-51.82,147.85c-34.75,47.23-84.78,79.72-132.99,111.63 c-13.78,9.12-27.54,18.29-41,27.89c-11.49,8.19-22.91,17.52-36.51,21.6c25.31-37.89,50.6-75.79,75.92-113.67 c12.83-19.2,25.78-38.38,40.33-56.34c12.84-15.85,27.16-30.4,41.21-45.16c13.28-13.95,26.41-28.15,37.74-43.77 c10.93-15.07,21.2-32.33,25.71-50.56c2.22-8.98,1.95-17.92-2.51-26.2c-5.21-9.68-13.73-17.46-20.75-25.82 c-15.15-18.05-28.71-37.39-40.53-57.77c-12.6-21.74-21.51-45.85-40.4-63.2c-16.31-14.98-36.28-24.96-56.13-34.41 c-0.55-2.51-3.87-3.11-5.28-1.54c-2.27,0.75-3.53,3.96-0.87,5.21c0.15,0.07,0.29,0.14,0.44,0.21c1.14,13.81,6.77,26.44,11.64,39.34 c5.22,13.81,7.72,27.52,5.92,42.25c-3.2,26.29-16.01,50.24-22.98,75.55c-4,14.51-4.16,29.99-9.1,44.2 c-5.06,14.57-15.57,26.35-23.39,39.43c-8.21,13.73-12.76,29.12-18.62,43.9c-6.34,16-13.74,31.55-21.6,46.86 c-8.68,16.89-17.69,33.66-27.02,50.2c-7.56,13.4-15.77,26.48-26,37.96c7.88-40.71,20.35-80.52,37.16-118.44 c8.6-19.39,18.81-38.04,27.16-57.54c8.58-20.04,13.43-40.09,15.17-61.79c0.93-11.52,2.18-22.81,5.07-34.03 c2.74-10.67,6.32-21.09,9.51-31.63c6.45-21.38,10.86-43.37,13.06-65.59c1.95-19.71,5.37-43.38-9.82-58.87 c-7.03-7.17-16.06-11.92-24.97-16.33c-9.87-4.88-19.63-9.88-29.11-15.5c-10.96-6.5-21.56-13.59-31.74-21.24 c-10.08-7.57-19.43-15.99-29.27-23.84c-16.6-13.23-37.77-24.68-59.48-18.68c-1.76-2.61-6.34,0.02-5.02,3.35 c10.49,26.46,25.24,53.56,21.85,82.82c-1.54,13.29-4.33,26.16-3.19,39.61c1.21,14.24,4.12,28.23,4.96,42.53 c1.72,29.19-0.1,58.54-1.09,87.73c-0.94,27.71-1.25,55.97-8.81,82.86c-4.26,15.15-10.93,29.47-17.32,43.8 c-6.56,14.69-13.11,29.38-19.67,44.07c-0.57,0.32-1.04,0.87-1.24,1.73c-2.04,8.61-10.26,13.6-18.81,13.83 c-9.46,0.25-16.97-6.01-20.37-14.58c-8.82-22.22,12.6-37.99,16.69-58.3c2.15-10.67,2.62-21.53,5.18-32.15 c2.55-10.57,6.08-20.88,10.02-31.02c7.98-20.55,17.55-40.45,24.68-61.34c15.03-44.02,20.38-90.1,18.23-136.46 c-1.1-23.67-2.8-47.74-6.2-71.2c-1.59-10.97-5.45-21.26-14.18-28.52c-9.02-7.5-20.57-12.4-30.81-17.99 c-22.01-12.02-43.76-25.42-66.91-35.15c-18.38-7.73-38.47-12.08-57.73-5.73c-0.97-0.08-1.93,0.3-2.61,0.92 c-0.05,0.02-0.11,0.04-0.16,0.06c-3.34,1.29-1.19,5.97,1.99,5.53c6.83,6.29,12.45,13.65,16.44,22.08 c4.4,9.29,6.09,19.22,7.27,29.36c1.14,9.82,2.1,19.63,5.3,29.04c3.2,9.41,7.94,18.29,10.56,27.9c5.03,18.48,0.14,38.31,0.45,57.14 c0.16,9.77,0.78,19.54,0.34,29.32c-0.48,10.65-2.18,21.19-4.22,31.64c-4.47,22.93-9.38,45.77-14.1,68.65 c-0.35,0.11-0.7,0.28-1.04,0.56c-4.72,3.79-10.18-1.23-12.04-5.49c-2.13-4.85-2.46-10.63-3.15-15.83 c-1.36-10.28-2.31-20.62-2.82-30.98c-0.98-20.02-0.4-40.12,1.77-60.05c2.09-19.24,5.77-38.32,6.8-57.68 c1.04-19.32-1.37-38.3-7.09-56.79c-5.77-18.65-14.15-36.35-23.16-53.62c-4.04-7.75-7.8-13.4-16.69-15.6 c-8.65-2.14-17.77-3.17-26.64-3.78c-18.29-1.25-36.72,0.85-53.5,8.56c-8.71,4-16.83,9.13-25.46,13.29 c-9.76,4.7-19.1,6.74-29.88,7.02c-9.56,0.25-17.77,1.77-25.38,7.95c-4.61,3.74-8.55,8.23-13.43,11.64 c-5.05,3.53-10.58,5.8-16.51,7.39c-4.74,1.27-9.16,2.76-12.65,6.36c-3.62,3.74-6.26,8.4-9.67,12.35 c-7.62,8.84-16.71,16.22-26.81,22.03c-2.05,1.18-1.81,3.65-0.54,4.94c-3.84,5.04-5.66,11.19-4.58,17.61 c1.54,9.18,9.42,15.83,15.54,22.18c14.52,15.04,29.26,29.87,43.49,45.19c28.94,31.13,54.68,64.59,73.62,102.81 c9.87,19.91,17.88,40.67,24.08,61.99c-0.05,0.07-0.1,0.13-0.14,0.2c-4.62,8.31-21.24,0.91-27.69-1.78 c-8.71-3.63-16.91-8.75-24-14.97c-7.52-6.59-13.47-14.56-19.51-22.47c-6.02-7.87-12.52-15.21-19.79-21.96 c-27.96-25.96-65.2-45.77-79.7-83.15c-7.93-20.44-4.98-43.51,9.38-60.36c1.33-1.56,0.77-3.55-0.4-4.62 c1.28-2.75-3.22-5.3-5.47-2.56c-10.72,13.04-28.83,17.41-36.55,33.34c-6.12,12.62-5.09,27.14-5.74,40.76 c-0.81,17.04-7.91,33.08-7.89,50.17c0.02,16.19,5.28,31.83,12.66,46.09c7.69,14.86,17.62,28.52,27.77,41.77 c11.24,14.68,23.51,27.43,39.87,36.35c7.8,4.25,15.61,8.32,22.96,13.33c7.6,5.19,14.8,10.94,21.95,16.73 c14.62,11.82,29.24,23.09,46,31.78c18.8,9.75,38.35,18.18,57.7,26.76c10.29,4.56,20.6,9.06,30.95,13.48 c7.72,3.3,20.75,8.04,21,17.95c-16.96,14.34-42.99,5.17-60.71-3.34c-22.71-10.91-44.56-23.9-66.67-35.97 c-11.35-6.2-22.7-12.4-34.06-18.59c-10.54-5.76-22.03-10.89-31.74-17.99c-10.76-7.87-13.71-20.42-19.86-31.56 c-5.29-9.58-11.92-18.36-18.86-26.8c-16.46-20.01-35.91-39.01-43.75-64.4c-0.19-0.62-0.52-1.08-0.92-1.44 c0.02-3.07-4.83-4.33-5.83-0.94c-4.86,16.38-16.69,29.21-23.73,44.56c-6.99,15.25-8.52,32.26-7.49,48.83 c1.11,17.65,4.11,35.7,9.21,52.64c5.35,17.77,14.14,33.86,28.31,46.09c14.21,12.26,31.27,20.73,47.59,29.77 c18.52,10.25,37.05,20.51,55.57,30.76c30.97,17.14,61.91,34.46,94.3,48.83c34.03,15.09,69.81,26.61,106.98,30.19 c-11.1,23.26-46.09,20.83-67.83,19.56c-24.72-1.45-49.22-5.78-72.96-12.81c-23.74-7.03-46.67-16.71-68.2-28.93 c-22.84-12.96-45.19-28.47-62.12-48.77c-10.75-12.88-18.86-27.69-27.2-42.17l-25.37-44.06c-1.18-2.04-3.63-1.81-4.92-0.55 c-1.9-0.57-4.48,0.82-4.03,3.41c3.1,17.77-1.8,35.31-6.26,52.4c-4.35,16.71-7.98,33.68-9.07,50.96 c-2.23,35.36,7.29,72.82,35.65,96.07c6.87,5.63,14.41,10.33,21.8,15.23c8.05,5.33,15.42,11.19,22.58,17.66 c6.66,6.02,13.43,11.79,21.63,15.61c7.72,3.59,16.03,5.57,24.23,7.69c37.73,9.7,75.4,20.61,113.74,27.72 c19.57,3.63,39.44,6.04,59.37,5.84c19.43-0.2,39.53-5.22,58.82-1.42c1.56,10.67-10.25,16.67-19.42,18.24 c-11.31,1.93-23.2,1.93-34.65,2c-22.69,0.15-45.36-1.55-67.88-4.28c-43.99-5.34-87.58-15.02-128.82-31.45 c-22.5-8.97-44.51-19.49-68.44-24.11c-2.26-0.44-4.19,1.06-3.86,3.47c0.41,3.01,0.83,6.02,1.24,9.04 c-1.04,0.54-1.76,1.62-1.41,3.12l12.41,53.32c4.03,17.32,6.61,34.48,19.48,47.7c10.49,10.78,22.23,20.74,33.89,30.23 c11.69,9.52,24.1,18.28,37.71,24.84c28.8,13.88,61.38,13.95,92.63,11.14c17.02-1.53,33.9-4.73,50.05-10.38 c16.6-5.81,32.27-13.8,50.1-15.02c9.03-0.62,18.1-0.28,27.12-1.07c8.67-0.76,16.95-2.99,25.16-5.79 c13.71-4.68,27.59-10.74,42.18-10.33c-3.44,2-7.53,4.58-8.36,5.03c-4.8,2.57-9.74,4.9-14.73,7.07c-9.45,4.12-19.12,7.7-28.77,11.31 c-19.99,7.49-39.88,15.9-60.35,21.98c-19.24,5.72-38.6,6.33-58.53,5.97c-17.86-0.32-35.27,0.18-52.99,2.51 c-18.62,2.45-37.92,5.11-55.83-2.16c-2.32-0.94-4.03,1.43-3.86,3.47c2.28,26.87,28.23,43.74,44.76,62.21 c8.72,9.74,17.2,20.01,28.13,27.4c9.97,6.74,21.51,9.83,33.14,12.3c12.6,2.68,24.73,5.29,36.17,11.48 c9.39,5.08,18.97,10.76,30.06,9.73c12.71-1.18,22.77-10.07,32.2-17.84c5.15-4.24,10.34-8.28,16.2-11.52 c6.19-3.42,12.65-6.27,18.48-10.32c12.64-8.79,21.75-21.58,34.19-30.59c12.54-9.08,28.02-12.9,43.33-11.49 c1.61,7.47-3.28,17.4-6.2,23.74c-3.45,7.49-7.9,14.54-12.99,21.02c-10.41,13.25-23.79,24.1-38.53,32.18 c-16.43,9-34.42,14.73-52.79,18.16c-9.16,1.71-18.47,2.95-27.77,3.54c-8.46,0.53-17.17,0.27-24.59-4.27 c-2.37-1.45-5.95,1.26-4.28,3.9c8.92,14.14,22.76,23.09,37.73,29.88c15.79,7.17,32.51,13.15,49.11,18.16 c17.15,5.18,34.7,8.11,52.65,7c17.22-1.07,34.05-5.06,50.59-9.79c17.07-4.88,33.92-10.54,51.2-14.7 c18.15-4.37,37.85-5.57,54.34-15.04c29.07-16.68,40.21-51.74,39.87-83.49c-0.44-41.48-16.7-81.05-16.33-122.57 c0.44-0.09,0.84-0.33,1.19-0.72c4.31,0.57,8.05-2.98,8.98-7.15c4.98-0.84,10.71,1.11,14.7,4.42c7.91,6.57,12.81,16.85,17.4,25.84 c10.26,20.07,17.97,41.45,29.97,60.62c19.5,31.15,50.74,54.8,86.4,64.08c37.08,9.65,76.73,3.73,109.5-16.01 c18.65-11.24,35.01-25.82,50.73-40.78c7.38-7.02,14.6-14.24,20.92-22.24c6.59-8.34,11.75-17.61,16.79-26.93 c19.57-36.18,41.28-79.4,23.11-120.39c0.17-0.36,0.35-0.72,0.52-1.08c1.65-3.44-3.38-6.71-5.06-3.23c-0.17,0.35-0.34,0.7-0.5,1.04 c-1.04,0.61-1.76,1.76-1.5,3.1c-3.9,8.03-8.01,16.01-13.41,23.14c-7.18,9.47-16.81,16.56-26.95,22.59 c-19.02,11.31-39.73,22.52-62.08,24.74c-21.21,2.11-42.45-2.75-62.92-7.71c-4.36-1.06-9.25-1.86-13.06-4.35 c-5.66-3.7-5.16-10.12-2.09-15.41c5.4-9.31,16.37-14.12,26.41-16.41c20.18-4.6,41.47-0.12,61.34-6.7 c10.94-3.63,20.6-10.18,31.77-13.22c10.58-2.88,21.56-3.76,32.34-5.6c18.05-3.08,37.19-10.08,45.61-27.67 c4.61-9.63,6.62-20.59,8.99-30.93c2.35-10.24,4.44-20.54,6.29-30.89c4.29-24.05,7.17-48.35,8.62-72.73 c1.22-20.64-0.33-42.11,2.85-62.68c0.79-3.24,1.45-6.55,1.96-9.93c0.07-0.29,0.13-0.58,0.2-0.87c0.1-0.38,0.11-0.74,0.08-1.08 c0.02-0.13,0.04-0.25,0.05-0.38c0.5-3.84-5.5-4.14-5.99-0.33c-0.08,0.6-0.19,1.18-0.27,1.78c-0.72,3.06-1.3,6.14-1.78,9.24 c-11.57,48.02-55.6,79.78-94.84,105.86c-23.92,15.9-47.5,32.86-72.57,46.94c-12.34,6.93-25.26,12.98-38.95,16.71 c-5.43,1.48-12.15,3.6-17.79,1.79c-7.93-2.55-3.85-9.76,0.51-13.53c4.19-3.63,9.19-6.33,13.76-9.46 c5.82-3.98,11.54-8.11,17.16-12.36c10.84-8.2,21.34-16.84,31.72-25.61c21.23-17.96,41.96-36.55,64.15-53.34 c11.04-8.35,22.44-16.2,34.35-23.28c10.22-6.08,20.77-11.79,30.04-19.32c18.66-15.18,25.37-36.69,23.09-60.19 c-1.48-15.32-6.36-30.02-10.35-44.8c-4.15-15.37-7.28-30.99-9.85-46.7c-2.58-15.74-4.6-31.56-6.66-47.38 c-1.61-12.35-3.62-25.12-12.75-34C1607.17,904.5,1607.27,903.81,1607.36,903.12z M1615.05,948.95c1.9,14.55,3.87,29.09,6.34,43.56 c2.52,14.74,5.59,29.37,9.55,43.79c3.75,13.67,8.15,27.31,9.7,41.46c1.36,12.4,0.48,25.68-5.14,37.01 c-5.89,11.88-16.5,20.27-27.47,27.22c-11.33,7.17-23.1,13.54-34.22,21.06c-11.45,7.76-22.47,16.12-33.23,24.8 c-22.14,17.87-43.19,37.04-65.28,54.96c-11.29,9.16-22.85,18.01-34.93,26.1c-7.11,4.76-18.65,10.34-19.18,20.24 c-0.54,10.1,10.25,13.19,18.4,12.44c13.16-1.21,26.58-6.94,38.38-12.59c26.66-12.76,50.86-30.65,75.42-46.94 c37.86-25.12,80.96-53.27,100.71-95c-0.35,10.87-0.22,21.79-0.72,32.59c-1.07,23.2-3.44,46.33-7.09,69.27 c-1.86,11.66-4.05,23.27-6.58,34.8c-2.37,10.81-4.49,22.09-8.4,32.47c-8.87,23.59-34.81,27.13-56.67,30.29 c-11.68,1.69-22.84,4.13-33.58,9.15c-11.13,5.21-21.38,9.82-33.77,11.03c-20.85,2.03-43.53-1.38-62.26,10.24 c-7.28,4.52-14.24,11.59-15.59,20.4c-1.42,9.27,4.85,15.45,13.1,18.23c9.9,3.33,20.6,5.27,30.85,7.22c10.5,2,21.14,3.47,31.85,3.47 c25.85,0,48.4-10.7,70.5-23.13c11-6.19,21.84-13.23,30.23-22.79c6.23-7.11,10.91-15.26,15.14-23.64 c13.1,36.06-5.43,74.34-22.55,106.09c-4.83,8.97-9.58,18.05-15.52,26.34c-6.37,8.88-14.06,16.68-21.93,24.21 c-15.71,15.05-32.04,29.88-50.75,41.14c-33.56,20.19-74.52,25.57-111.98,13.6c-37.56-12.01-66.6-39.46-84.35-74.2 c-10.86-21.26-18.6-44.58-32.4-64.23c-4.95-7.05-11.7-13.68-20.61-14.87c-2.22-0.3-4.5-0.24-6.69,0.16 c-0.24-0.42-0.53-0.83-0.85-1.22c6.26-4.52,16.55-1.22,22.66,1.54c10.07,4.56,19.89,9.94,29.75,14.95 c10.02,5.09,20.41,9.41,30.53,14.31c9.79,4.73,19.59,9.45,29.53,13.88c37,16.47,76.54,28.91,117.41,28.75 c19.09-0.07,46.5-3.05,55.43-22.96c1.03-2.3-2.26-4-3.92-2.51c-7.78,6.99-15.67,11.95-25.84,14.73 c-10.09,2.76-20.66,3.42-31.08,3.53c-20.23,0.22-40.35-3.42-59.75-9c-42.73-12.29-80.03-35.32-117.35-58.75 c-8.76-5.5-17.81-11.6-27.86-14.54c3.45-1.66,6.91-3.31,10.39-4.94c13.6-6.35,27.06-13.15,41.19-18.25 c26.14-9.44,54.01-12.27,81.46-15.25c27.73-3.01,55.26-6.61,81.86-15.36c25.19-8.28,49.28-20,71.19-34.96 c25.25-17.25,46.83-37.76,64-63.1c0.47-0.7-0.58-1.64-1.16-0.98c-35.84,40.62-80.45,73.96-132.05,91.46 c-25.93,8.79-52.75,12.7-79.89,15.54c-27.19,2.85-54.74,5.18-81.08,12.94c-15.89,4.69-31.07,11.43-46.11,18.29 c-14.36,6.56-28.83,12.75-43.28,19.06c-5.35-5.01-10.19-10.46-14.58-16.26c0.41-0.68,0.71-1.5,0.87-2.47 c2.27-14,13.02-25.97,22.75-35.6c11.86-11.74,24.54-23.03,37.64-33.37c14.26-11.25,29.63-19.88,46.13-27.35 c16.36-7.4,32.31-14.91,47.15-25.11c29.27-20.13,55.87-44.45,83.27-67.01c27.07-22.29,55.38-43.68,80.72-67.95 c13.08-12.52,24.77-26.27,34.27-41.71c9.62-15.62,16.96-32.62,23.39-49.76c0.22-0.57-0.68-1.01-0.98-0.46 c-8.05,14.59-15.3,29.67-24.03,43.89c-8.95,14.59-19.25,27.87-31.41,39.94c-25,24.8-53.76,46.05-81.01,68.28 c-14.14,11.54-28.28,23.09-42.48,34.56c-14.12,11.42-28.12,23.08-43.15,33.3c-15.14,10.31-31.37,17.98-48.07,25.38 c-15.98,7.09-31.04,15.17-45.05,25.68c-15.11,11.34-28.81,24.38-42.78,37.05c-10.2,9.25-19.08,19.28-24.93,31.56 c-12.19-19.36-20.83-41.48-29.12-63.31c26.7-20.39,50.43-44.41,70.08-71.7c10.3-14.31,19.77-29.24,28.03-44.82 c4.16-7.86,7.66-16.13,12.35-23.7c5.12-8.27,12.18-15.05,18.87-22.02c13.64-14.21,27.22-28.49,40.97-42.6 c12.93-13.27,24.42-27,32.9-43.58c8.15-15.94,14.71-32.73,21.64-49.23c7.11-16.91,14.1-33.88,20.68-51 c14.68-38.22,27.3-77.11,32.76-117.81c0.03-0.24-0.37-0.32-0.43-0.08c-16.53,70.31-43.65,138.13-73.52,203.74 c-7.92,17.39-17.7,32.79-30.85,46.7c-13.35,14.12-27.42,27.58-41.21,41.27c-6.66,6.61-13.55,13.05-19.88,19.98 c-5.95,6.51-10.47,13.72-14.57,21.51c-8.12,15.44-16.81,30.47-26.89,44.73c-20.77,29.36-46.59,55.7-75.06,77.77 c-3.8-9.95-7.64-19.74-11.84-29.06c-9.89-21.97-22.95-41.8-37.12-61.05c19.89-20.32,33.37-45.59,45.41-71.33 c15.88-33.96,31.46-68.12,46.34-102.53c15.19-35.13,29.72-70.52,44.49-105.83c13.25-31.69,29.17-63.96,30.08-98.94 c0.5-19.28-1.85-39.02-4.43-58.1c-1.34-9.9-3.45-19.59-6.67-29.05c-3.45-10.15-7.56-20.01-10.31-30.4 c-0.05-0.21-0.35-0.14-0.32,0.07c2.48,17.67,10.79,33.94,13.63,51.61c2.82,17.53,3.4,35.5,3.79,53.23c0.38,17.08-1.8,33.57-7,49.87 c-5.26,16.47-12.41,32.33-19.15,48.23c-29,68.41-59.66,136.22-90.27,203.93c-13.3,29.41-26.69,60.79-49.04,84.6 c-2.3-3.07-4.62-6.14-6.95-9.19c-18.36-24.02-35.48-48.36-49.42-75.26c-11.49-22.16-21.54-45.16-31.36-68.15 c12.06-19.95,22.96-40.47,31.31-62.29c8.63-22.53,15.64-45.73,21.7-69.07c5.98-23.02,11.02-46.36,14.57-69.88 c3.52-23.28,7.42-47.63,6.02-71.23c-1.43-24.09-12.82-46.95-10.96-71.34c0.01-0.18-0.28-0.24-0.32-0.06 c-4.53,20.15,2.98,39.49,6.1,59.25c3.68,23.37-1.34,47.54-5.5,70.54c-8.46,46.79-20.63,93-37.72,137.4 c-8.41,21.83-19.74,41.72-31.63,61.62c-11.53-27.1-22.54-54.37-35.4-80.89c-13.02-26.85-28.08-52.78-46.66-76.19 c-19.5-24.57-41.67-46.8-57.34-74.22c-17.61-30.82-28.53-64.78-37.56-98.94c-6.11-23.12-12.38-54.66-37.87-63.93 c-0.59-0.21-1.06,0.73-0.48,1.01c25.06,11.89,30.4,42.06,36.67,66.24c7.72,29.8,16.27,59.72,29.54,87.59 c13.23,27.79,32.19,50.84,51.4,74.61c19.1,23.63,34.94,49.09,48.17,76.43c7.34,15.17,13.86,30.66,20.02,46.31 c-33.74-10.59-67.5-21.17-100.94-32.69c-16.78-5.78-34.01-10.95-50.19-18.29c-16.85-7.64-31.26-19.04-44.2-32.14 c-14.84-15.02-28.57-31.26-42.73-46.92c-0.09-0.1-0.25,0.04-0.16,0.15c12.41,14.48,24.67,29.11,37.33,43.38 c11.75,13.25,23.83,26.18,39.06,35.48c15.14,9.25,32.03,15.62,48.56,21.9c18.43,7,36.98,13.7,55.52,20.39 c20.62,7.44,41.39,14.22,62.35,20.6c13.91,36.4,26.48,73.35,43.35,108.54c3.08,6.43,6.31,12.74,9.67,18.97 c-34.69-2.43-69.45-3.5-104.11-6.39c-17.76-1.48-34.41-5.13-51.03-11.58c-16.77-6.5-33.38-13.49-49.81-20.79 c-18.92-8.41-37.47-17.72-55.87-27.2c-0.37-0.19-0.7,0.3-0.35,0.55c29.43,21.41,63.87,34.88,96.93,49.57 c16.25,7.22,32.36,12.98,49.99,15.72c18.81,2.92,37.88,4.3,56.77,6.6c21.73,2.64,43.4,5.14,65.18,7.18 c8.97,15.28,18.81,30,29.53,44.29c6.15,8.2,12.4,16.33,18.51,24.56c0.17,0.36,0.42,0.69,0.72,0.97 c9.38,12.67,18.37,25.58,26.03,39.37c-27.84,5.43-56.33,4.35-84.61,4.09c-33.69-0.3-67.38-0.49-101.08-0.53 c-30.33-0.04-61.21,3.16-91.42-0.87c-13.54-1.8-26.65-6.01-37.38-14.68c-5.78-4.67-10.97-9.96-17.27-13.98 c-4.6-2.94-9.54-5.33-14.59-7.38c-25.01-10.11-53.7-11.41-75.95-27.88c-0.59-0.44-1.41,0.52-0.84,1 c18.56,15.57,42.9,19.08,65.17,26.67c12.87,4.39,24.14,10.41,34.19,19.64c10.08,9.26,20.4,16.12,33.76,19.63 c12.61,3.32,25.7,4.05,38.68,4.49c17.1,0.57,34.18,1.46,51.26,2.52c34.24,2.13,68.57,3.02,102.86,4.11 c34.5,1.1,69.74,3.18,103.71-4.2c10.42,21.81,18.4,45.51,27.65,68.41c-11.04,4.09-21.79,9.46-32.68,13.73 c-13.62,5.33-27.45,10.13-41.6,13.87c-28.4,7.51-57.7,8.71-86.6,13.31c-28.36,4.51-56.21,11.22-84.34,16.86 c-27.57,5.53-55.52,8.69-83.66,8.22c-30.24-0.5-59.53-5.86-89.3-10.42c-0.77-0.12-0.89,1.02-0.24,1.28 c24.77,9.8,52.29,13.59,78.77,15.11c27.88,1.6,55.55-0.44,83.2-3.99c29.12-3.73,57.94-8.99,86.93-13.49 c29.11-4.52,58.84-5.76,87.63-12.24c15.97-3.6,31.55-8.7,46.86-14.44c7.72-2.89,15.37-5.97,22.97-9.14 c5.59-2.33,11.34-4.52,16.86-7.11c6.95,16.04,14.86,31.45,25.05,45.27c-83.51,42.57-159.94,100.06-251.67,124.56 c-11.8,3.15-23.75,5.74-35.81,7.63c-12.41,1.95-25.87,1.6-37.78,5.68c-1.89,0.65-2.55,3.56-0.23,4.22 c10.29,2.97,21.39,1.3,31.87,0.01c11.52-1.43,22.96-3.5,34.27-6.12c21.98-5.09,43.46-12.24,64.39-20.64 c45.12-18.11,87.89-41.83,130.19-65.65c24.06-13.55,48-27.27,72.46-40.09c3.2,3.67,6.62,7.19,10.27,10.55 c-19.99,30.22-32.08,64.74-50.5,95.88c-20.74,35.06-50.41,62.03-83.53,85.22c-9.43,6.61-19.09,12.89-28.83,19.04 c-4.75,3-9.47,6.03-14.16,9.11c-4.68,3.07-8.59,6.55-12.9,10.09c-0.9,0.74,0.14,2.01,1.12,1.6c4.7-1.99,9.22-3.58,13.67-6.1 c4.62-2.62,9.19-5.28,13.7-8.08c8.77-5.46,17.47-11.03,26.03-16.82c16.5-11.17,32.49-23.14,47.21-36.59 c14.57-13.32,28.02-28.08,39.13-44.44c11.17-16.45,19.88-34.43,28.59-52.26c8.45-17.3,16.82-34.63,27.35-50.74 c0.95,0.76,1.91,1.51,2.9,2.25c-0.5,0.45-0.84,1.12-0.86,2.01c-0.73,35.28,10.62,69.01,14.86,103.73 c3.91,31.99,0.48,68.48-24.78,91.5c-13.81,12.59-31.73,15.77-49.47,19.18c-16.81,3.23-33.16,8.13-49.53,13.08 c-32.26,9.75-65.13,18.81-98.94,11.82c-18.63-3.85-36.69-10.78-54.36-17.69c-14.21-5.56-28.87-12.34-39.35-23.58 c9.35,2.13,19.47,1,28.96-0.07c16.72-1.89,33.25-5.42,49.09-11.16c28.31-10.25,54.14-28.4,70.26-54.2 c4.21-6.74,7.72-13.97,10.3-21.48c2.39-6.95,4.61-14.31,1.69-21.41c-0.75-1.84-2.52-1.99-3.87-1.24 c-11.78-1.2-23.63,0.54-34.56,5.16c-11.59,4.9-20.67,13.26-29.46,22.04c-4.58,4.58-9.14,9.21-14.21,13.26 c-6.07,4.84-12.95,8.04-19.76,11.67c-11.01,5.87-19.7,14.5-29.73,21.74c-5.11,3.69-10.87,6.95-17.21,7.79 c-6.83,0.9-13.26-1.44-19.26-4.46c-9.99-5.04-19.13-10.22-30.09-13.01c-11.65-2.97-23.73-4.43-35.01-8.75 c-12.08-4.62-21.44-13.2-30.05-22.6c-9.7-10.59-19.41-20.91-29.6-31.02c-9.64-9.56-19.04-19.99-21.95-33.35 c15.57,4.91,32.14,3.51,48.21,1.47c10.09-1.28,20.14-2.78,30.31-3.2c10.52-0.43,21.04-0.07,31.56,0.09 c22.41,0.32,43.42-1.78,64.74-9.07c22.32-7.64,44.4-16.25,66.41-24.74c12.56-4.84,25.03-10.09,36.6-17.04 c3.46-2.08,8.68-4.23,9.45-8.7c0.57-3.34-1.37-5.48-4.68-5.15c-1.14,0.12-1.82,0.71-2.13,1.49c-12.6-1.28-24.81,2.38-36.67,6.55 c-14.86,5.23-28.71,9.48-44.6,9.9c-7.68,0.2-15.39,0.15-23.03,1.09c-7.84,0.96-15.36,3.24-22.76,5.93 c-16.25,5.91-31.8,12.44-48.88,15.74c-16.57,3.19-33.45,4.37-50.3,4.43c-16.08,0.06-32.23-0.85-47.61-5.91 c-28.16-9.27-51.2-29.28-72.77-48.88c-6.97-6.33-14.78-12.62-19.47-20.94c-4.93-8.77-6.46-19.28-8.72-28.97 c-4.2-18.05-8.4-36.09-12.6-54.14c0.71-0.61,1.16-1.54,1-2.72c-0.45-3.31-0.91-6.62-1.36-9.94c21.37,4.8,41.32,14.02,61.57,22.2 c22.15,8.95,44.98,16.04,68.24,21.46c46.35,10.81,94.88,16.85,142.51,15.34c12.31-0.39,27.25,0.24,38.36-5.9 c8.13-4.5,13.99-13.73,11.41-23.12c-0.02-1.09-0.64-2.1-2.06-2.42c0,0-0.01,0-0.01,0c-0.25-0.08-0.5-0.13-0.75-0.15 c-16.31-3.44-32.6-0.53-49.01,0.54c-17.88,1.17-35.85,0.02-53.58-2.45c-36.96-5.16-73.07-15.7-109.15-24.98 c-9.58-2.46-19.18-4.84-28.73-7.41c-8.47-2.28-16.74-5.04-24.01-10.1c-7.45-5.18-13.73-11.84-20.71-17.61 c-6.86-5.67-14.39-10.42-21.8-15.31c-15.91-10.51-28.97-22.58-37.24-40.06c-7.88-16.64-10.88-35.15-10.56-53.46 c0.35-19.95,4.49-39.45,9.51-58.68c4.06-15.55,8.11-31.38,6.82-47.45c7.11,12.34,14.22,24.68,21.32,37.03 c7.7,13.37,15.19,26.95,24.46,39.32c17.04,22.74,40.8,39.89,65.17,54.04c44.61,25.91,95.33,41.23,146.83,44.26 c25.24,1.49,63.6,2.95,74.64-25.4c1.57-0.8,1.93-3.05,0.96-4.47c-0.61-1.92-3.29-2.75-4.83-1.46 c-67.23-5.88-128.09-38.2-186.19-70.29c-16.99-9.38-33.96-18.8-50.94-28.2c-16.72-9.25-33.87-18-50.05-28.19 c-16.14-10.17-29.27-22.77-37.16-40.39c-7.53-16.82-10.87-35.66-13.15-53.85c-2.3-18.31-2.43-37.53,4.54-54.92 c5.79-14.47,16.27-26.44,22.49-40.64c7.94,20.65,22.76,37.34,37.01,54.08c8.07,9.47,16.07,19.1,22.41,29.84 c6.17,10.45,9.19,23.28,17.92,32.03c8.61,8.64,20.83,13.72,31.38,19.49c12.81,6.99,25.61,13.99,38.42,20.98 c23.45,12.8,46.6,26.72,70.8,38.06c19.6,9.18,47.28,17.43,65.55,1.65c0.7-0.26,1.3-0.76,1.64-1.51c0.24-0.24,0.49-0.46,0.74-0.71 c1.53-1.58,0.86-3.71-0.51-4.72c-1.93-13.16-19.72-18.92-30.35-23.49c-18.01-7.75-35.94-15.72-53.76-23.89 c-17.24-7.9-34.62-15.73-50.22-26.64c-14.86-10.4-28.2-22.77-42.99-33.26c-14.74-10.46-32.22-16.75-45.58-29.13 c-13.11-12.14-23.92-27.32-33.86-42.1c-9.25-13.76-17.66-28.6-21.64-44.82c-2.04-8.31-2.83-16.86-1.97-25.39 c0.92-9.14,3.79-17.91,5.59-26.88c3.22-16.07,0.21-33.16,4.92-48.91c4.3-14.37,17.1-20.68,28.2-28.98 c-7.77,13.36-10.65,29.03-7.61,44.59c3.9,20.01,16.29,37.55,30.43,51.76c16.28,16.36,35.75,29.08,52.76,44.63 c8.46,7.73,15.82,16.24,22.76,25.34c6.49,8.52,13.16,16.67,21.55,23.4c9.02,7.24,19.46,12.8,30.49,16.29 c7.29,2.31,18.15,5.23,24.42-0.28c1.92,1.81,5.89,0.47,5.03-2.65c-10.61-38.47-27.05-75.24-49.01-108.59 c-21.64-32.87-48.6-61.55-75.94-89.68c-7.73-7.95-15.49-15.87-23.16-23.87c-4.02-4.19-8.77-8.63-10.02-14.54 c-1.06-5.03,0.49-10.33,3.87-14.15c1.09-1.23,0.96-2.76,0.26-3.87c7.63-4.61,14.74-10.04,21.03-16.37 c3.12-3.13,6.03-6.48,8.74-9.97c3.17-4.07,5.66-8.84,10.61-11c4.32-1.88,9.15-2.5,13.53-4.3c4.86-2,9.38-4.77,13.47-8.07 c8.19-6.62,14.13-14.45,25.31-15.68c9.26-1.02,18.16-0.23,27.2-3.09c9.06-2.87,17.35-7.53,25.66-12.05 c8.81-4.8,17.7-9.22,27.51-11.6c9.73-2.35,19.75-3.07,29.74-2.74c9.39,0.31,18.88,1.4,28.08,3.27c4.98,1.01,9.26,2.49,12.11,7 c2.81,4.46,5.03,9.42,7.4,14.13c9.04,17.95,17.17,36.53,21.81,56.15c9.25,39.2-2,77.93-4.55,117.18 c-1.45,22.39-0.92,44.89,1.5,67.2c1.03,9.52,1.02,22.06,6.9,30.09c4.53,6.19,13.1,8.46,19.32,3.47c0.02-0.01,0.03-0.03,0.05-0.05 c1.11,0,2.13-0.61,2.43-2.06c4.48-21.74,9.03-43.46,13.43-65.21c2.03-10.05,3.93-20.15,4.89-30.37c0.97-10.35,0.59-20.7,0.3-31.07 c-0.28-10.03,0.06-19.92,0.83-29.92c0.72-9.41,1.33-18.93-0.22-28.3c-1.66-10.07-6.18-19.29-9.91-28.7 c-3.95-9.95-5.65-20.06-6.85-30.65c-1.24-10.97-2.71-21.79-7.11-32.02c-3.84-8.93-9.44-16.98-16.32-23.8 c17.78-4.51,36.4,0.9,52.91,8.17c21.3,9.38,41.46,21.68,61.86,32.82c5.73,3.13,11.46,6.25,17.19,9.38 c5.22,2.85,10.75,5.6,15.14,9.7c10.07,9.39,10.92,23.28,12.23,36.14c2.52,24.79,4.94,49.62,5.24,74.55 c0.58,47.15-8.04,93.54-25.69,137.27c-8.39,20.79-18.14,41.09-24.63,62.59c-2.97,9.86-5.13,19.91-6.36,30.13 c-0.7,5.8-1.18,11.69-2.83,17.32c-1.64,5.58-4.54,10.5-7.56,15.42c-5.75,9.35-10.85,18.62-10.34,29.94 c0.43,9.52,4.33,19.07,11.93,25.08c12.69,10.03,34.51,5.45,40.25-9.99c0.16-0.2,0.31-0.43,0.42-0.69 c6.44-14.42,12.87-28.84,19.31-43.26c5.97-13.37,12.28-26.68,16.94-40.58c8.92-26.61,10.17-54.84,11.13-82.65 c1.02-29.84,2.89-59.84,1.76-89.7c-0.54-14.35-2.4-28.41-4.39-42.61c-2.02-14.36-0.39-27.67,1.61-41.92 c2.18-15.51,1.2-29.81-3.86-44.72c-4.72-13.92-10.49-27.54-15.99-41.19c19.55-4.78,38.22,5.72,53.24,17.6 c17.32,13.7,33.71,28.03,52.41,39.93c9.21,5.86,18.7,11.28,28.42,16.26c8.89,4.55,18.17,8.51,26.42,14.2 c9.09,6.28,15.33,14.6,16.72,25.77c1.34,10.79,0.07,22.23-0.94,33.01c-2.06,22.04-6.34,43.81-12.7,65.01 c-6.24,20.8-12.82,40.8-14.67,62.57c-0.93,10.97-1.64,21.92-4.12,32.68c-2.25,9.73-5.51,19.2-9.28,28.44 c-7.64,18.74-17.35,36.55-25.82,54.92c-20.12,43.65-34.31,89.84-42.57,137.18c-0.59,3.41,4.15,3.98,5.62,1.36 c23.58-22.96,38.11-53.95,53.36-82.66c8.02-15.1,15.77-30.36,22.69-46c6.86-15.51,11.8-31.81,18.82-47.23 c6.6-14.52,17.26-26.5,24.74-40.5c7.59-14.2,8.43-29.36,11.54-44.83c5.32-26.52,18.5-50.69,24.03-77.15 c2.97-14.22,3.43-28.73-0.48-42.83c-4.35-15.66-12.85-30.33-15.03-46.5c16.06,7.7,32.06,15.9,45.95,27.13 c8.42,6.81,15.82,14.83,21.62,23.98c6.23,9.82,11.04,20.47,16.53,30.7c10.34,19.27,22.23,37.7,35.46,55.11 c6.9,9.09,14.23,17.82,21.8,26.35c7.25,8.16,14.5,16.78,13.78,28.37c-0.61,9.85-5.08,19.8-9.36,28.57 c-4.04,8.28-8.82,16.19-14.07,23.76c-10.99,15.84-24.01,30.13-37.25,44.1c-12.98,13.7-26.27,27.13-38.49,41.53 c-14.31,16.86-27.04,34.95-39.4,53.26c-29.17,43.24-57.96,86.73-86.93,130.1c-1.51,2.26,0.69,4.9,3.14,4.55 c14.22-2.02,26.14-9.93,37.56-18.14c13.11-9.43,26.36-18.62,39.8-27.57c26.16-17.42,52.68-34.39,77.56-53.62 c22.51-17.4,43.68-36.72,61.37-59.08c17.19-21.73,30.03-46.26,39.03-72.43c8.9-25.9,14.23-52.84,18.27-79.89 C1613.24,922.68,1613.55,937.44,1615.05,948.95z"/><path d="M1285.76,1272.73c-9.76-3.91-20.57-2.43-29.18,2.78c-0.34,0.06-0.67,0.2-1,0.43c-0.6,0.43-1.27,0.98-1.98,1.61 c-2.68,2.03-5.08,4.43-7.07,7.18c-0.31,0.42-0.45,0.86-0.48,1.29c-0.23,0.32-0.47,0.64-0.69,0.97c-4.95,5.43-7.96,11.96-5.5,18.52 c5.71,15.24,25.96,3.99,34.3-2.02C1280.38,1299.01,1299.97,1278.42,1285.76,1272.73z M1285.32,1280.63 c-0.21,2.07-2.92,5.48-4.2,7.14c-3.01,3.9-6.91,7.43-10.88,10.33c-3.92,2.87-8.25,5-12.52,7.28c-2.23,1.19-4.71,2.91-7.23,3.31 c-1.72,0.27-3.27-0.11-4.56-0.92c-0.01-0.01-0.01-0.01-0.02-0.02c-5.14-5.22-1.85-12.93,2.32-18.83c0.85,0.26,1.8,0.15,2.57-0.6 c7-6.8,17.68-12.4,27.61-12.42C1281.9,1275.89,1285.77,1276.23,1285.32,1280.63z"/><path d="M1176.31,1376.65c-6.66-7.81-20.99-4.07-29.23-1.65c-5.47,1.61-10.76,3.86-15.49,7.06 c-2.57,1.74-5.53,3.84-7.28,6.53c-0.38,0.12-0.76,0.26-1.16,0.44c-3.39,1.53-0.74,6.69,2.64,5.14c2.58-1.18,6.71,2.06,9.18,2.77 c2.43,0.7,5,0.99,7.52,0.95c6.19-0.1,12.01-2.06,17.7-4.34C1165.85,1391.28,1184.43,1386.18,1176.31,1376.65z M1171.44,1382.73 c-0.83,1.15-4.17,1.88-5.4,2.39c-2.21,0.92-4.41,1.85-6.62,2.75c-5.06,2.06-10.32,4.09-15.85,4.35c-4.54,0.21-8.06-1.22-12.15-2.94 c-0.41-0.17-0.81-0.32-1.2-0.46c1.09-1,2.19-1.98,3.4-2.8c3.91-2.63,8.34-4.47,12.85-5.79c4.25-1.24,8.66-2.04,13.06-2.47 C1161.58,1377.56,1175.52,1377.1,1171.44,1382.73z"/><path d="M1119.89,1298.91c-8.15-2.46-17.58-6.21-26.2-5.43c-7.45,0.67-15.35,2.8-22.55,5.72 c-7.58,1.02-14.08,9.95-13.07,17.85c1.86,14.58,19.87,17.1,31.37,19.4c14.33,2.87,32.06,4,42.69-8.15 c4.01-4.58,6.53-10.78,4.19-16.73C1133.57,1304.55,1126.73,1300.97,1119.89,1298.91z M1117.28,1330.09 c-6.94,2.38-14.33,1.97-21.48,0.95c-6.56-0.93-13.34-1.76-19.73-3.56c-6.16-1.73-12.79-5.25-12.99-12.48 c-0.13-4.57,1.86-7.51,4.83-9.31c6.74-1.5,13.52-2.84,20.31-4.11c4.13-0.77,7.86-1.25,12.03-0.25c3.59,0.86,7.12,2.02,10.67,3.04 c6.03,1.73,14.86,3.11,18.09,9.25C1133.08,1321.36,1123.44,1327.97,1117.28,1330.09z"/><path d="M1236.24,1171.48c-4.9-3.79-12.64-5.15-17.98-1.99c-4.14,0.88-8.25,2.48-11.42,3.82 c-7.82,3.29-15,8.3-20.8,14.49c-10.81,11.55-19.94,30.64-10.55,45.59c8.82,14.04,27.22,20.31,41.9,11.52 c8.29-4.97,13.91-12.9,18.22-21.37c4.12-8.11,8.14-16.71,9.51-25.78C1246.54,1188.24,1244.15,1177.6,1236.24,1171.48z M1237.67,1204.04c-4.11,13.3-11.35,30.06-24.14,37.05c-13.36,7.29-31.04-0.77-36.02-14.82c-4.71-13.28,4.94-28.77,14.29-37.6 c5.19-4.9,11.25-8.78,17.86-11.46c1.44-0.58,2.9-1.09,4.38-1.56c0.52,1.32,2.32,1.99,3.78,0.94c6.97-5.04,14.77-3.14,19.05,4.39 C1240.83,1187.97,1239.96,1196.66,1237.67,1204.04z"/><path d="M1074.55,1181.21c-14-3.49-32.2-0.65-42.86,9.75c-11.52,11.24-5.69,28.11,5.94,36.62 c7.37,5.4,16.6,8.39,25.49,10.06c4.59,0.86,9.21,1.4,13.89,1.1c1.89-0.12,3.75-0.43,5.61-0.81c6.14,1.46,13.91-1.26,18.27-5.66 c5.15-5.19,5.29-13.23,3.87-19.96C1101.57,1197.24,1089.41,1184.91,1074.55,1181.21z M1100.85,1220.9 c-0.39,5.2-2.86,8.82-7.39,11.19c-2.41,1.26-5.05,1.87-7.57,2.8c-6.82-0.01-14.05-1.16-20.56-2.28c-7.89-1.35-16.04-3.88-22.8-8.22 c-6.98-4.49-12.92-12.18-11.62-20.95c1.33-8.99,10.94-13.8,18.76-16.17c15.28-4.63,32.29-1.03,42.99,11.22 C1097.88,1204.47,1101.46,1212.82,1100.85,1220.9z"/><path d="M1167.85,1070.02c-5.27-2.93-11.66-1.14-16.66,1.5c-7.51,3.97-14.25,10.19-19.91,16.43 c-5.71,6.29-13.03,14.6-15.01,23.05c-0.11,0.47-0.1,0.89,0,1.26c-6.97,10.11-4.59,29.31,6.81,35.01 c14.72,7.35,26.47-8.57,32.98-19.27c7.51-12.35,18.87-26.34,19.16-41.49C1175.34,1080.4,1173.59,1073.21,1167.85,1070.02z M1169.89,1085.52c0.2,7.36-3.12,14.43-6.61,20.72c-4.02,7.25-8.45,14.31-12.8,21.37c-4.29,6.96-9.5,14.83-18.24,16.19 c-10.27,1.6-14.51-8.51-14.25-17.05c0.13-4.36,1.56-7.96,2.68-12.06c0.17-0.61,0.44-1.7,0.35-2.64c2.3-3.07,3.93-6.71,6.07-9.9 c2.4-3.56,5.03-6.96,7.92-10.13c5.32-5.85,11.66-11.84,18.72-15.56c2.89-1.53,6.82-3.19,10.14-2.15 C1168.47,1075.75,1169.77,1081.2,1169.89,1085.52z"/><path d="M1048.05,874.99c-7.36,0.35-15.28,8.11-19.67,13.05c-6.16,6.93-10.73,15.21-13.47,24.07 c-5.63,18.2-4.27,38.88,0.46,57.14c1.85,7.14,5.95,14.81,14.3,14.96c7.81,0.14,14.05-6.13,17.96-12.22 c5.2-8.11,7.92-17.76,10.8-26.87c2.92-9.24,5.5-18.64,6.79-28.26c1.39-10.34,1.29-21.47-2.29-31.4 C1060.53,878.88,1054.54,873.46,1048.05,874.99z M1058.22,888.9c1.11,3.67,1.7,7.56,2.01,11.38c0.59,7.18-0.07,14.42-1.35,21.49 c-1.33,7.35-3.38,14.57-5.6,21.69c-2.26,7.27-4.34,14.8-7.7,21.65c-2.95,6.01-8.72,14.68-16.56,13.63 c-8.03-1.08-9.19-12.89-10.36-19.16c-2.75-14.85-3.45-30.52,0.85-45.15c2.4-8.15,6.41-15.87,11.96-22.32 c2.7-3.13,5.75-5.91,9.09-8.33c1.29-0.94,2.71-1.71,4.11-2.49c0.85,0.37,1.88,0.37,2.81-0.31 C1052.87,877.03,1057.01,884.9,1058.22,888.9z"/></g></svg>